<svg id="visual" viewBox="0 0 2080 2080" width="2080" height="2080" xmlns="http://www.w3.org/2000/svg" xmlns:xlink="http://www.w3.org/1999/xlink" version="1.1"><rect x="0" y="0" width="2080" height="2080" fill="#010b13"></rect><path d="M0 853L19.3 806.7C38.7 760.3 77.3 667.7 115.8 630.5C154.3 593.3 192.7 611.7 231.2 593.5C269.7 575.3 308.3 520.7 346.8 494.3C385.3 468 423.7 470 462.2 491.8C500.7 513.7 539.3 555.3 577.8 559.7C616.3 564 654.7 531 693.2 591.3C731.7 651.7 770.3 805.3 808.8 831.2C847.3 857 885.7 755 924.2 729.2C962.7 703.3 1001.3 753.7 1040 767.5C1078.7 781.3 1117.3 758.7 1155.8 740.2C1194.3 721.7 1232.7 707.3 1271.2 736.7C1309.7 766 1348.3 839 1386.8 895.2C1425.3 951.3 1463.7 990.7 1502.2 1000.3C1540.7 1010 1579.3 990 1617.8 918.2C1656.3 846.3 1694.7 722.7 1733.2 678.2C1771.7 633.7 1810.3 668.3 1848.8 750.2C1887.3 832 1925.7 961 1964.2 952.3C2002.7 943.7 2041.3 797.3 2060.7 724.2L2080 651L2080 0L2060.7 0C2041.3 0 2002.7 0 1964.2 0C1925.7 0 1887.3 0 1848.8 0C1810.3 0 1771.7 0 1733.2 0C1694.7 0 1656.3 0 1617.8 0C1579.3 0 1540.7 0 1502.2 0C1463.7 0 1425.3 0 1386.8 0C1348.3 0 1309.7 0 1271.2 0C1232.7 0 1194.3 0 1155.8 0C1117.3 0 1078.7 0 1040 0C1001.3 0 962.7 0 924.2 0C885.7 0 847.3 0 808.8 0C770.3 0 731.7 0 693.2 0C654.7 0 616.3 0 577.8 0C539.3 0 500.7 0 462.2 0C423.7 0 385.3 0 346.8 0C308.3 0 269.7 0 231.2 0C192.7 0 154.3 0 115.8 0C77.3 0 38.7 0 19.3 0L0 0Z" fill="#510500"></path><path d="M0 600L19.3 606.7C38.7 613.3 77.3 626.7 115.8 679.2C154.3 731.7 192.7 823.3 231.2 837.2C269.7 851 308.3 787 346.8 729.2C385.3 671.3 423.7 619.7 462.2 606C500.7 592.3 539.3 616.7 577.8 625C616.3 633.3 654.7 625.7 693.2 668.8C731.7 712 770.3 806 808.8 834.7C847.3 863.3 885.7 826.7 924.2 796C962.7 765.3 1001.3 740.7 1040 750C1078.7 759.3 1117.3 802.7 1155.8 761.7C1194.3 720.7 1232.7 595.3 1271.2 549.8C1309.7 504.3 1348.3 538.7 1386.8 630.5C1425.3 722.3 1463.7 871.7 1502.2 894C1540.7 916.3 1579.3 811.7 1617.8 801.3C1656.3 791 1694.7 875 1733.2 830.8C1771.7 786.7 1810.3 614.3 1848.8 580.2C1887.3 546 1925.7 650 1964.2 740.3C2002.7 830.7 2041.3 907.3 2060.7 945.7L2080 984L2080 0L2060.7 0C2041.3 0 2002.7 0 1964.2 0C1925.7 0 1887.3 0 1848.8 0C1810.3 0 1771.7 0 1733.2 0C1694.7 0 1656.3 0 1617.8 0C1579.3 0 1540.7 0 1502.2 0C1463.7 0 1425.3 0 1386.8 0C1348.3 0 1309.7 0 1271.2 0C1232.7 0 1194.3 0 1155.8 0C1117.3 0 1078.7 0 1040 0C1001.3 0 962.7 0 924.2 0C885.7 0 847.3 0 808.8 0C770.3 0 731.7 0 693.2 0C654.7 0 616.3 0 577.8 0C539.3 0 500.7 0 462.2 0C423.7 0 385.3 0 346.8 0C308.3 0 269.7 0 231.2 0C192.7 0 154.3 0 115.8 0C77.3 0 38.7 0 19.3 0L0 0Z" fill="#540500"></path><path d="M0 382L19.3 400.2C38.7 418.3 77.3 454.7 115.8 499.5C154.3 544.3 192.7 597.7 231.2 603.7C269.7 609.7 308.3 568.3 346.8 554C385.3 539.7 423.7 552.3 462.2 620.3C500.7 688.3 539.3 811.7 577.8 792.2C616.3 772.7 654.7 610.3 693.2 541.5C731.7 472.7 770.3 497.3 808.8 574.3C847.3 651.3 885.7 780.7 924.2 769.3C962.7 758 1001.3 606 1040 587.5C1078.7 569 1117.3 684 1155.8 685.2C1194.3 686.3 1232.7 573.7 1271.2 574C1309.7 574.3 1348.3 687.7 1386.8 759C1425.3 830.3 1463.7 859.7 1502.2 804.5C1540.7 749.3 1579.3 609.7 1617.8 598.3C1656.3 587 1694.7 704 1733.2 780.2C1771.7 856.3 1810.3 891.7 1848.8 898.2C1887.3 904.7 1925.7 882.3 1964.2 868C2002.7 853.7 2041.3 847.3 2060.7 844.2L2080 841L2080 0L2060.7 0C2041.3 0 2002.7 0 1964.2 0C1925.7 0 1887.3 0 1848.8 0C1810.3 0 1771.7 0 1733.2 0C1694.7 0 1656.3 0 1617.8 0C1579.3 0 1540.7 0 1502.2 0C1463.7 0 1425.3 0 1386.8 0C1348.3 0 1309.7 0 1271.2 0C1232.7 0 1194.3 0 1155.8 0C1117.3 0 1078.7 0 1040 0C1001.3 0 962.7 0 924.2 0C885.7 0 847.3 0 808.8 0C770.3 0 731.7 0 693.2 0C654.7 0 616.3 0 577.8 0C539.3 0 500.7 0 462.2 0C423.7 0 385.3 0 346.8 0C308.3 0 269.7 0 231.2 0C192.7 0 154.3 0 115.8 0C77.3 0 38.7 0 19.3 0L0 0Z" fill="#570401"></path><path d="M0 810L19.3 736.5C38.7 663 77.3 516 115.8 451.7C154.3 387.3 192.7 405.7 231.2 467.3C269.7 529 308.3 634 346.8 655.3C385.3 676.7 423.7 614.3 462.2 570.5C500.7 526.7 539.3 501.3 577.8 471.8C616.3 442.3 654.7 408.7 693.2 467.5C731.7 526.3 770.3 677.7 808.8 671.7C847.3 665.7 885.7 502.3 924.2 460.3C962.7 418.3 1001.3 497.7 1040 537.8C1078.7 578 1117.3 579 1155.8 576.3C1194.3 573.7 1232.7 567.3 1271.2 573.7C1309.7 580 1348.3 599 1386.8 588.5C1425.3 578 1463.7 538 1502.2 504.8C1540.7 471.7 1579.3 445.3 1617.8 450.5C1656.3 455.7 1694.7 492.3 1733.2 561.3C1771.7 630.3 1810.3 731.7 1848.8 756.5C1887.3 781.3 1925.7 729.7 1964.2 668.8C2002.7 608 2041.3 538 2060.7 503L2080 468L2080 0L2060.7 0C2041.3 0 2002.7 0 1964.2 0C1925.7 0 1887.3 0 1848.8 0C1810.3 0 1771.7 0 1733.2 0C1694.7 0 1656.3 0 1617.8 0C1579.3 0 1540.7 0 1502.2 0C1463.7 0 1425.3 0 1386.8 0C1348.3 0 1309.7 0 1271.2 0C1232.7 0 1194.3 0 1155.8 0C1117.3 0 1078.7 0 1040 0C1001.3 0 962.7 0 924.2 0C885.7 0 847.3 0 808.8 0C770.3 0 731.7 0 693.2 0C654.7 0 616.3 0 577.8 0C539.3 0 500.7 0 462.2 0C423.7 0 385.3 0 346.8 0C308.3 0 269.7 0 231.2 0C192.7 0 154.3 0 115.8 0C77.3 0 38.7 0 19.3 0L0 0Z" fill="#5b0401"></path><path d="M0 398L19.3 419.8C38.7 441.7 77.3 485.3 115.8 490.2C154.3 495 192.7 461 231.2 458C269.7 455 308.3 483 346.8 533.8C385.3 584.7 423.7 658.3 462.2 689C500.7 719.7 539.3 707.3 577.8 649.5C616.3 591.7 654.7 488.3 693.2 470.3C731.7 452.3 770.3 519.7 808.8 543.2C847.3 566.7 885.7 546.3 924.2 542.3C962.7 538.3 1001.3 550.7 1040 543.5C1078.7 536.3 1117.3 509.7 1155.8 490.7C1194.3 471.7 1232.7 460.3 1271.2 459.3C1309.7 458.3 1348.3 467.7 1386.8 444.7C1425.3 421.7 1463.7 366.3 1502.2 403.8C1540.7 441.3 1579.3 571.7 1617.8 621.8C1656.3 672 1694.7 642 1733.2 591.5C1771.7 541 1810.3 470 1848.8 478.2C1887.3 486.3 1925.7 573.7 1964.2 618.2C2002.7 662.7 2041.3 664.3 2060.7 665.2L2080 666L2080 0L2060.7 0C2041.3 0 2002.7 0 1964.2 0C1925.7 0 1887.3 0 1848.8 0C1810.3 0 1771.7 0 1733.2 0C1694.7 0 1656.3 0 1617.8 0C1579.3 0 1540.7 0 1502.2 0C1463.7 0 1425.3 0 1386.8 0C1348.3 0 1309.7 0 1271.2 0C1232.7 0 1194.3 0 1155.8 0C1117.3 0 1078.7 0 1040 0C1001.3 0 962.7 0 924.2 0C885.7 0 847.3 0 808.8 0C770.3 0 731.7 0 693.2 0C654.7 0 616.3 0 577.8 0C539.3 0 500.7 0 462.2 0C423.7 0 385.3 0 346.8 0C308.3 0 269.7 0 231.2 0C192.7 0 154.3 0 115.8 0C77.3 0 38.7 0 19.3 0L0 0Z" fill="#5e0401"></path><path d="M0 377L19.3 389.7C38.7 402.3 77.3 427.7 115.8 469.3C154.3 511 192.7 569 231.2 570.2C269.7 571.3 308.3 515.7 346.8 475.2C385.3 434.7 423.7 409.3 462.2 380.8C500.7 352.3 539.3 320.7 577.8 313.5C616.3 306.3 654.7 323.7 693.2 368.2C731.7 412.7 770.3 484.3 808.8 519.7C847.3 555 885.7 554 924.2 538.2C962.7 522.3 1001.3 491.7 1040 487.7C1078.7 483.7 1117.3 506.3 1155.8 524C1194.3 541.7 1232.7 554.3 1271.2 544.7C1309.7 535 1348.3 503 1386.8 509.8C1425.3 516.7 1463.7 562.3 1502.2 544.7C1540.7 527 1579.3 446 1617.8 405.5C1656.3 365 1694.7 365 1733.2 402.3C1771.7 439.7 1810.3 514.3 1848.8 522.8C1887.3 531.3 1925.7 473.7 1964.2 444.2C2002.7 414.7 2041.3 413.3 2060.7 412.7L2080 412L2080 0L2060.7 0C2041.3 0 2002.7 0 1964.2 0C1925.7 0 1887.3 0 1848.8 0C1810.3 0 1771.7 0 1733.2 0C1694.7 0 1656.3 0 1617.8 0C1579.3 0 1540.7 0 1502.2 0C1463.7 0 1425.3 0 1386.8 0C1348.3 0 1309.7 0 1271.2 0C1232.7 0 1194.3 0 1155.8 0C1117.3 0 1078.7 0 1040 0C1001.3 0 962.7 0 924.2 0C885.7 0 847.3 0 808.8 0C770.3 0 731.7 0 693.2 0C654.7 0 616.3 0 577.8 0C539.3 0 500.7 0 462.2 0C423.7 0 385.3 0 346.8 0C308.3 0 269.7 0 231.2 0C192.7 0 154.3 0 115.8 0C77.3 0 38.7 0 19.3 0L0 0Z" fill="#610301"></path><path d="M0 333L19.3 343.8C38.7 354.7 77.3 376.3 115.8 402.8C154.3 429.3 192.7 460.7 231.2 488.2C269.7 515.7 308.3 539.3 346.8 504.8C385.3 470.3 423.7 377.7 462.2 329.3C500.7 281 539.3 277 577.8 271C616.3 265 654.7 257 693.2 298.7C731.7 340.3 770.3 431.7 808.8 456.2C847.3 480.7 885.7 438.3 924.2 410.3C962.7 382.3 1001.3 368.7 1040 346C1078.7 323.3 1117.3 291.7 1155.8 318.5C1194.3 345.3 1232.7 430.7 1271.2 443.7C1309.7 456.7 1348.3 397.3 1386.8 378.7C1425.3 360 1463.7 382 1502.2 414.2C1540.7 446.3 1579.3 488.7 1617.8 487.3C1656.3 486 1694.7 441 1733.2 445.3C1771.7 449.7 1810.3 503.3 1848.8 481C1887.3 458.7 1925.7 360.3 1964.2 342.2C2002.7 324 2041.3 386 2060.7 417L2080 448L2080 0L2060.7 0C2041.3 0 2002.7 0 1964.2 0C1925.7 0 1887.3 0 1848.8 0C1810.3 0 1771.7 0 1733.2 0C1694.7 0 1656.3 0 1617.8 0C1579.3 0 1540.7 0 1502.2 0C1463.7 0 1425.3 0 1386.8 0C1348.3 0 1309.7 0 1271.2 0C1232.7 0 1194.3 0 1155.8 0C1117.3 0 1078.7 0 1040 0C1001.3 0 962.7 0 924.2 0C885.7 0 847.3 0 808.8 0C770.3 0 731.7 0 693.2 0C654.7 0 616.3 0 577.8 0C539.3 0 500.7 0 462.2 0C423.7 0 385.3 0 346.8 0C308.3 0 269.7 0 231.2 0C192.7 0 154.3 0 115.8 0C77.3 0 38.7 0 19.3 0L0 0Z" fill="#650301"></path><path d="M0 323L19.3 341.7C38.7 360.3 77.3 397.7 115.8 392.3C154.3 387 192.7 339 231.2 318.3C269.7 297.7 308.3 304.3 346.8 292.3C385.3 280.3 423.7 249.7 462.2 275.3C500.7 301 539.3 383 577.8 402.2C616.3 421.3 654.7 377.7 693.2 365.2C731.7 352.7 770.3 371.3 808.8 370.7C847.3 370 885.7 350 924.2 323.7C962.7 297.3 1001.3 264.7 1040 245.2C1078.7 225.7 1117.3 219.3 1155.8 234.5C1194.3 249.7 1232.7 286.3 1271.2 312.2C1309.7 338 1348.3 353 1386.8 378.8C1425.3 404.7 1463.7 441.3 1502.2 414.2C1540.7 387 1579.3 296 1617.8 256.2C1656.3 216.3 1694.7 227.7 1733.2 253.2C1771.7 278.7 1810.3 318.3 1848.8 347.7C1887.3 377 1925.7 396 1964.2 414.8C2002.7 433.7 2041.3 452.3 2060.7 461.7L2080 471L2080 0L2060.7 0C2041.3 0 2002.7 0 1964.2 0C1925.7 0 1887.3 0 1848.8 0C1810.3 0 1771.7 0 1733.2 0C1694.7 0 1656.3 0 1617.8 0C1579.3 0 1540.7 0 1502.2 0C1463.7 0 1425.3 0 1386.8 0C1348.3 0 1309.7 0 1271.2 0C1232.7 0 1194.3 0 1155.8 0C1117.3 0 1078.7 0 1040 0C1001.3 0 962.7 0 924.2 0C885.7 0 847.3 0 808.8 0C770.3 0 731.7 0 693.2 0C654.7 0 616.3 0 577.8 0C539.3 0 500.7 0 462.2 0C423.7 0 385.3 0 346.8 0C308.3 0 269.7 0 231.2 0C192.7 0 154.3 0 115.8 0C77.3 0 38.7 0 19.3 0L0 0Z" fill="#680201"></path><path d="M0 218L19.3 219C38.7 220 77.3 222 115.8 250.5C154.3 279 192.7 334 231.2 355.8C269.7 377.7 308.3 366.3 346.8 351.2C385.3 336 423.7 317 462.2 320.5C500.7 324 539.3 350 577.8 365.8C616.3 381.7 654.7 387.3 693.2 370.2C731.7 353 770.3 313 808.8 301.3C847.3 289.7 885.7 306.3 924.2 330.7C962.7 355 1001.3 387 1040 380.5C1078.7 374 1117.3 329 1155.8 289.7C1194.3 250.3 1232.7 216.7 1271.2 222.3C1309.7 228 1348.3 273 1386.8 271C1425.3 269 1463.7 220 1502.2 230.7C1540.7 241.3 1579.3 311.7 1617.8 324.7C1656.3 337.7 1694.7 293.3 1733.2 275.7C1771.7 258 1810.3 267 1848.8 267.3C1887.3 267.7 1925.7 259.3 1964.2 262.8C2002.7 266.3 2041.3 281.7 2060.7 289.3L2080 297L2080 0L2060.7 0C2041.3 0 2002.7 0 1964.2 0C1925.7 0 1887.3 0 1848.8 0C1810.3 0 1771.7 0 1733.2 0C1694.7 0 1656.3 0 1617.8 0C1579.3 0 1540.7 0 1502.2 0C1463.7 0 1425.3 0 1386.8 0C1348.3 0 1309.7 0 1271.2 0C1232.7 0 1194.3 0 1155.8 0C1117.3 0 1078.7 0 1040 0C1001.3 0 962.7 0 924.2 0C885.7 0 847.3 0 808.8 0C770.3 0 731.7 0 693.2 0C654.7 0 616.3 0 577.8 0C539.3 0 500.7 0 462.2 0C423.7 0 385.3 0 346.8 0C308.3 0 269.7 0 231.2 0C192.7 0 154.3 0 115.8 0C77.3 0 38.7 0 19.3 0L0 0Z" fill="#6b0201"></path><path d="M0 249L19.3 226.5C38.7 204 77.3 159 115.8 154C154.3 149 192.7 184 231.2 219.8C269.7 255.7 308.3 292.3 346.8 306C385.3 319.7 423.7 310.3 462.2 297C500.7 283.7 539.3 266.3 577.8 256.8C616.3 247.3 654.7 245.7 693.2 235.2C731.7 224.7 770.3 205.3 808.8 198.2C847.3 191 885.7 196 924.2 198C962.7 200 1001.3 199 1040 185C1078.7 171 1117.3 144 1155.8 140.5C1194.3 137 1232.7 157 1271.2 171.2C1309.7 185.3 1348.3 193.7 1386.8 216.8C1425.3 240 1463.7 278 1502.2 284.5C1540.7 291 1579.3 266 1617.8 235C1656.3 204 1694.7 167 1733.2 165.7C1771.7 164.3 1810.3 198.7 1848.8 206.7C1887.3 214.7 1925.7 196.3 1964.2 202.3C2002.7 208.3 2041.3 238.7 2060.7 253.8L2080 269L2080 0L2060.7 0C2041.3 0 2002.7 0 1964.2 0C1925.7 0 1887.3 0 1848.8 0C1810.3 0 1771.7 0 1733.2 0C1694.7 0 1656.3 0 1617.8 0C1579.3 0 1540.7 0 1502.2 0C1463.7 0 1425.3 0 1386.8 0C1348.3 0 1309.7 0 1271.2 0C1232.7 0 1194.3 0 1155.8 0C1117.3 0 1078.7 0 1040 0C1001.3 0 962.7 0 924.2 0C885.7 0 847.3 0 808.8 0C770.3 0 731.7 0 693.2 0C654.7 0 616.3 0 577.8 0C539.3 0 500.7 0 462.2 0C423.7 0 385.3 0 346.8 0C308.3 0 269.7 0 231.2 0C192.7 0 154.3 0 115.8 0C77.3 0 38.7 0 19.3 0L0 0Z" fill="#6e0101"></path><path d="M0 85L19.3 88.2C38.7 91.3 77.3 97.7 115.8 119C154.3 140.3 192.7 176.7 231.2 189.2C269.7 201.7 308.3 190.3 346.8 191C385.3 191.7 423.7 204.3 462.2 203.7C500.7 203 539.3 189 577.8 170.7C616.3 152.3 654.7 129.7 693.2 127.8C731.7 126 770.3 145 808.8 158.8C847.3 172.7 885.7 181.3 924.2 175C962.7 168.7 1001.3 147.3 1040 151C1078.7 154.7 1117.3 183.3 1155.8 198.2C1194.3 213 1232.7 214 1271.2 198.3C1309.7 182.7 1348.3 150.3 1386.8 146.8C1425.3 143.3 1463.7 168.7 1502.2 182C1540.7 195.3 1579.3 196.7 1617.8 205.2C1656.3 213.7 1694.7 229.3 1733.2 214C1771.7 198.7 1810.3 152.3 1848.8 152.3C1887.3 152.3 1925.7 198.7 1964.2 214.2C2002.7 229.7 2041.3 214.3 2060.7 206.7L2080 199L2080 0L2060.7 0C2041.3 0 2002.7 0 1964.2 0C1925.7 0 1887.3 0 1848.8 0C1810.3 0 1771.7 0 1733.2 0C1694.7 0 1656.3 0 1617.8 0C1579.3 0 1540.7 0 1502.2 0C1463.7 0 1425.3 0 1386.8 0C1348.3 0 1309.7 0 1271.2 0C1232.7 0 1194.3 0 1155.8 0C1117.3 0 1078.7 0 1040 0C1001.3 0 962.7 0 924.2 0C885.7 0 847.3 0 808.8 0C770.3 0 731.7 0 693.2 0C654.7 0 616.3 0 577.8 0C539.3 0 500.7 0 462.2 0C423.7 0 385.3 0 346.8 0C308.3 0 269.7 0 231.2 0C192.7 0 154.3 0 115.8 0C77.3 0 38.7 0 19.3 0L0 0Z" fill="#720100"></path><path d="M0 91L19.3 101.3C38.7 111.7 77.3 132.3 115.8 123.8C154.3 115.3 192.7 77.7 231.2 59C269.7 40.3 308.3 40.7 346.8 47.8C385.3 55 423.7 69 462.2 82.3C500.7 95.7 539.3 108.3 577.8 103.8C616.3 99.3 654.7 77.7 693.2 83.7C731.7 89.7 770.3 123.3 808.8 125C847.3 126.7 885.7 96.3 924.2 83.7C962.7 71 1001.3 76 1040 74.2C1078.7 72.3 1117.3 63.7 1155.8 63.2C1194.3 62.7 1232.7 70.3 1271.2 67.8C1309.7 65.3 1348.3 52.7 1386.8 50.7C1425.3 48.7 1463.7 57.3 1502.2 71.5C1540.7 85.7 1579.3 105.3 1617.8 108.8C1656.3 112.3 1694.7 99.7 1733.2 95.3C1771.7 91 1810.3 95 1848.8 91.7C1887.3 88.3 1925.7 77.7 1964.2 88C2002.7 98.3 2041.3 129.7 2060.7 145.3L2080 161L2080 0L2060.7 0C2041.3 0 2002.7 0 1964.2 0C1925.7 0 1887.3 0 1848.8 0C1810.3 0 1771.7 0 1733.2 0C1694.7 0 1656.3 0 1617.8 0C1579.3 0 1540.7 0 1502.2 0C1463.7 0 1425.3 0 1386.8 0C1348.3 0 1309.7 0 1271.2 0C1232.7 0 1194.3 0 1155.8 0C1117.3 0 1078.7 0 1040 0C1001.3 0 962.7 0 924.2 0C885.7 0 847.3 0 808.8 0C770.3 0 731.7 0 693.2 0C654.7 0 616.3 0 577.8 0C539.3 0 500.7 0 462.2 0C423.7 0 385.3 0 346.8 0C308.3 0 269.7 0 231.2 0C192.7 0 154.3 0 115.8 0C77.3 0 38.7 0 19.3 0L0 0Z" fill="#750000"></path></svg>